<svg version="1.1" viewBox="0.0 0.0 960.0 720.0" fill="none" stroke="none" stroke-linecap="square" stroke-miterlimit="10" xmlns:xlink="http://www.w3.org/1999/xlink" xmlns="http://www.w3.org/2000/svg"><clipPath id="p.0"><path d="m0 0l960.0 0l0 720.0l-960.0 0l0 -720.0z" clip-rule="nonzero"/></clipPath><g clip-path="url(#p.0)"><path fill="#000000" fill-opacity="0.0" d="m0 0l960.0 0l0 720.0l-960.0 0z" fill-rule="evenodd"/><path fill="#cfe2f3" d="m20.590551 39.188976l0 0c0 -17.24114 38.955925 -31.217848 87.0105 -31.217848c48.054573 0 87.01049 13.976707 87.01049 31.217848l0 124.87138c0 17.24115 -38.955917 31.21785 -87.01049 31.21785c-48.054573 0 -87.0105 -13.9767 -87.0105 -31.21785z" fill-rule="evenodd"/><path fill="#000000" fill-opacity="0.0" d="m194.61154 39.188976l0 0c0 17.241142 -38.955917 31.217846 -87.01049 31.217846c-48.054573 0 -87.0105 -13.976704 -87.0105 -31.217846" fill-rule="evenodd"/><path fill="#000000" fill-opacity="0.0" d="m20.590551 39.188976l0 0c0 -17.24114 38.955925 -31.217848 87.0105 -31.217848c48.054573 0 87.01049 13.976707 87.01049 31.217848l0 124.87138c0 17.24115 -38.955917 31.21785 -87.01049 31.21785c-48.054573 0 -87.0105 -13.9767 -87.0105 -31.21785z" fill-rule="evenodd"/><path stroke="#000000" stroke-width="8.0" stroke-linejoin="round" stroke-linecap="butt" d="m194.61154 39.188976l0 0c0 17.241142 -38.955917 31.217846 -87.01049 31.217846c-48.054573 0 -87.0105 -13.976704 -87.0105 -31.217846" fill-rule="evenodd"/><path stroke="#000000" stroke-width="8.0" stroke-linejoin="round" stroke-linecap="butt" d="m20.590551 39.188976l0 0c0 -17.24114 38.955925 -31.217848 87.0105 -31.217848c48.054573 0 87.01049 13.976707 87.01049 31.217848l0 124.87138c0 17.24115 -38.955917 31.21785 -87.01049 31.21785c-48.054573 0 -87.0105 -13.9767 -87.0105 -31.21785z" fill-rule="evenodd"/></g></svg>