<svg version="1.1" viewBox="0.0 0.0 192.64041994750656 191.35958005249344" fill="none" stroke="none" stroke-linecap="square" stroke-miterlimit="10" xmlns:xlink="http://www.w3.org/1999/xlink" xmlns="http://www.w3.org/2000/svg"><clipPath id="p.0"><path d="m0 0l192.64043 0l0 191.35957l-192.64043 0l0 -191.35957z" clip-rule="nonzero"/></clipPath><g clip-path="url(#p.0)"><path fill="#000000" fill-opacity="0.0" d="m0 0l192.64043 0l0 191.35957l-192.64043 0z" fill-rule="evenodd"/><path fill="#000000" fill-opacity="0.0" d="m10.230971 4.5275593l-0.50393677 165.85828" fill-rule="evenodd"/><path stroke="#000000" stroke-width="8.0" stroke-linejoin="round" stroke-linecap="butt" d="m10.230971 4.5275593l-0.50393677 165.85828" fill-rule="evenodd"/><path fill="#000000" fill-opacity="0.0" d="m6.5406823 170.89764l169.22835 -0.34646606" fill-rule="evenodd"/><path stroke="#000000" stroke-width="8.0" stroke-linejoin="round" stroke-linecap="butt" d="m6.5406823 170.89764l169.22835 -0.34646606" fill-rule="evenodd"/><path fill="#000000" fill-opacity="0.0" d="m21.63517 149.09744c4.858797 -15.58165 10.592018 -30.92688 14.422573 -46.792656c1.6377487 -6.783394 2.9628716 -17.647507 9.895012 -18.448814c19.781727 -2.2866287 27.466053 30.383606 45.616802 38.5748c12.122475 5.4707184 26.09517 -5.167137 39.078743 -8.049866c8.669586 -1.9248962 17.209229 8.686638 25.826767 6.54068" fill-rule="evenodd"/><path stroke="#000000" stroke-width="4.0" stroke-linejoin="round" stroke-linecap="butt" d="m21.63517 149.09744c4.858797 -15.58165 10.592018 -30.92688 14.422573 -46.792656c1.6377487 -6.783394 2.9628716 -17.647507 9.895012 -18.448814c19.781727 -2.2866287 27.466053 30.383606 45.616802 38.5748c12.122475 5.4707184 26.09517 -5.167137 39.078743 -8.049866c8.669586 -1.9248962 17.209229 8.686638 25.826767 6.54068" fill-rule="evenodd"/></g></svg>